<svg viewBox="0 0 71 22" xmlns="http://www.w3.org/2000/svg"><g fill="#58595b" fill-rule="evenodd" transform="translate(0-.668)"><path d="m3.826 18.668v-3c4.458.197 8.04-4.815 7.652-11h5.739c-.008 7.733-5.984 14-13.391 14m-3.826-18h22v22h-22v-22"/><path d="m41.22 20.04v-14.756h-2.692v5.965h-8.238v-5.965h-2.692v14.756h2.692v-6.62h8.238v6.62z"/><path d="m53.664 9.9c0 1.581-.947 2.551-2.839 2.551h-4.449v-5.08h4.449c1.727 0 2.839.907 2.839 2.53m2.532 0c0-3.056-2.272-4.616-5.323-4.616h-6.933v14.755h2.437v-5.502h4.33c3.217 0 5.489-1.602 5.489-4.637"/><path d="m68.33 15.57c0 1.454-.805 2.445-3.01 2.445h-4.424v-4.89h4.495c1.87 0 2.934.928 2.934 2.445m-.686-6.323c0 .97-.663 1.876-2.296 1.876h-4.448v-3.815h4.448c1.657 0 2.296.843 2.296 1.939m3.17 6.26c0-2.045-1.49-3.12-2.792-3.436 1.207-.527 2.106-1.454 2.106-2.951 0-2.487-1.87-3.836-4.757-3.836h-6.814v14.755h6.578c3.62 0 5.678-1.538 5.678-4.532"/></g></svg>