<svg viewBox="0 0 80 80" xmlns="http://www.w3.org/2000/svg"><g fill="none" fill-rule="evenodd" transform="translate(20 22)"><g><path stroke="#d51f1f" stroke-width="4" d="m16 8v8.75l6 5.25"/><path d="m33.26 12c-2.117-6.976-8.562-12-16.264-12-9.444 0-17 7.556-17 17 0 6.13 3.183 11.465 8 14.454v-5.01c-2.474-2.357-4-5.696-4-9.44 0-7.26 5.74-13 13-13 5.481 0 10.1 3.272 12.03 8h4.235" fill="#d51f1f"/></g><g transform="translate(10 14)" fill="#d51f1f"><path d="m16 18h14v4h-14z"/><path d="m0 18h14v4h-14z"/><path d="m16 12h14v4h-14z"/><path d="m0 12h14v4h-14z"/><path d="m16 6h14v4h-14z"/><path d="m16 0h14v4h-14z"/></g></g></svg>